<svg xmlns="http://www.w3.org/2000/svg" viewBox="0 0 32 32" fill="none">
  <defs>
    <linearGradient id="tc" x1="0%" y1="0%" x2="100%" y2="100%">
      <stop offset="0%" style="stop-color:#8C00C8"/>
      <stop offset="100%" style="stop-color:#00FFFF"/>
    </linearGradient>
  </defs>
  <circle cx="16" cy="16" r="14" stroke="url(#tc)" stroke-width="2" fill="#0D1117"/>
  <ellipse cx="16" cy="13" rx="9" ry="8" fill="url(#tc)"/>
  <circle cx="13" cy="12" r="2.2" fill="#0D1117"/>
  <circle cx="19" cy="12" r="2.2" fill="#0D1117"/>
  <circle cx="12" cy="11" r="0.8" fill="white" opacity="0.9"/>
  <circle cx="18" cy="11" r="0.8" fill="white" opacity="0.9"/>
  <path d="M12 16 Q16 19, 20 16" stroke="#0D1117" stroke-width="1.5" stroke-linecap="round" fill="none"/>
  <path d="M7 20 Q4 25, 6 29" stroke="url(#tc)" stroke-width="2.5" stroke-linecap="round" fill="none"/>
  <path d="M10 21 Q8 26, 9 30" stroke="url(#tc)" stroke-width="2.5" stroke-linecap="round" fill="none"/>
  <path d="M13 21.5 Q12 27, 12 30" stroke="url(#tc)" stroke-width="2" stroke-linecap="round" fill="none"/>
  <path d="M16 22 Q16 27, 16 30" stroke="url(#tc)" stroke-width="2" stroke-linecap="round" fill="none"/>
  <path d="M19 21.5 Q20 27, 20 30" stroke="url(#tc)" stroke-width="2" stroke-linecap="round" fill="none"/>
  <path d="M22 21 Q24 26, 23 30" stroke="url(#tc)" stroke-width="2.5" stroke-linecap="round" fill="none"/>
  <path d="M25 20 Q28 25, 26 29" stroke="url(#tc)" stroke-width="2.5" stroke-linecap="round" fill="none"/>
</svg>